<svg width="132" height="27" viewBox="0 0 132 27" fill="none" xmlns="http://www.w3.org/2000/svg">
<path d="M0.638672 18.4108H2.30146L3.15175 22.4733C3.68082 23.0905 4.48073 23.607 5.55146 24.0227C6.6222 24.4384 7.73073 24.6463 8.87704 24.6463C12.4924 24.6463 14.3 23.1598 14.3 20.187C14.3 19.2548 13.9536 18.4675 13.2608 17.825C12.5805 17.1826 11.5035 16.6094 10.0297 16.1056C7.86299 15.3875 6.30098 14.8081 5.34361 14.3672C4.39885 13.9137 3.59894 13.3846 2.9439 12.78C2.28887 12.1753 1.76609 11.4447 1.37559 10.5881C0.985087 9.71893 0.789835 8.65449 0.789835 7.3948C0.789835 5.16515 1.54565 3.47087 3.05728 2.31196C4.5815 1.14044 6.80485 0.554688 9.72733 0.554688C11.8436 0.554688 14.1866 0.825521 16.7564 1.36719V7.3948H15.0747L14.2244 3.91806C12.9395 2.98589 11.4405 2.5198 9.72733 2.5198C8.17792 2.5198 6.98751 2.80953 6.15611 3.38899C5.32472 3.95585 4.90902 4.83133 4.90902 6.01544C4.90902 6.85944 5.25544 7.58376 5.94826 8.18841C6.64109 8.78046 7.72443 9.30953 9.19826 9.77562C12.083 10.7204 14.0607 11.5455 15.1314 12.2509C16.2147 12.9437 17.0398 13.8066 17.6067 14.8396C18.1736 15.8725 18.457 17.0881 18.457 18.4864C18.457 23.8653 15.2889 26.5547 8.95263 26.5547C7.50398 26.5547 6.02385 26.4287 4.51222 26.1768C3.01319 25.9374 1.72201 25.6162 0.638672 25.2131V18.4108Z" fill="white"/>
<path d="M20.7811 26.1768V24.7785L24.0311 24.2872V2.72765L20.7811 2.21748V0.838118H33.2331V2.21748L29.9831 2.72765V12.0997H40.3378V2.72765L37.0878 2.21748V0.838118H49.5776V2.21748L46.3087 2.72765V24.2872L49.5776 24.7785V26.1768H37.0878V24.7785L40.3378 24.2872V14.1782H29.9831V24.2872L33.2331 24.7785V26.1768H20.7811Z" fill="white"/>
<path d="M58.4018 13.4791C58.4018 17.4975 58.9497 20.3696 60.0456 22.0954C61.1542 23.8086 62.9051 24.6652 65.2986 24.6652C67.6794 24.6652 69.4177 23.8023 70.5137 22.0765C71.6222 20.3507 72.1765 17.4849 72.1765 13.4791C72.1765 9.48589 71.6222 6.65159 70.5137 4.9762C69.4177 3.30081 67.6794 2.46312 65.2986 2.46312C62.9051 2.46312 61.1542 3.30081 60.0456 4.9762C58.9497 6.65159 58.4018 9.48589 58.4018 13.4791ZM52.1285 13.4791C52.1285 4.86283 56.5185 0.554688 65.2986 0.554688C69.6319 0.554688 72.9071 1.65062 75.1241 3.84248C77.3412 6.02174 78.4497 9.23395 78.4497 13.4791C78.4497 17.7746 77.3286 21.0309 75.0863 23.248C72.8441 25.4525 69.5815 26.5547 65.2986 26.5547C61.0282 26.5547 57.7656 25.4525 55.5108 23.248C53.2559 21.0435 52.1285 17.7872 52.1285 13.4791Z" fill="white"/>
<path d="M96.816 8.33957C96.816 6.32407 96.4381 4.91951 95.6823 4.12591C94.9391 3.31971 93.6227 2.91661 91.7331 2.91661H90.2404V14.1593H91.8087C93.5597 14.1593 94.832 13.7184 95.6256 12.8367C96.4192 11.9549 96.816 10.4559 96.816 8.33957ZM90.2404 16.2378V24.2872L94.4541 24.7974V26.1768H81.2651V24.7974L84.2695 24.2872V2.70876L81.0195 2.21748V0.838118H92.1866C95.7767 0.838118 98.4599 1.44277 100.236 2.65207C102.012 3.84878 102.9 5.73201 102.9 8.30178C102.9 13.5925 99.8141 16.2378 93.6416 16.2378H90.2404Z" fill="white"/>
<path d="M121.229 16.2V24.2872L125.253 24.7974V26.1768H111.233V24.7974L115.258 24.2872V16.3134L107.549 2.70876L104.695 2.21748V0.838118H117.733V2.21748L114.332 2.70876L120.114 13.3279L125.707 2.70876L122.608 2.21748V0.838118H131.224V2.21748L128.541 2.70876L121.229 16.2Z" fill="white"/>
</svg>
